<svg xmlns="http://www.w3.org/2000/svg" viewBox="0 0 200 200" width="200" height="200">
  <defs>
    <linearGradient id="rosettaBg" x1="0" y1="0" x2="1" y2="1">
      <stop offset="0%" stop-color="#0ea5e9"/>
      <stop offset="100%" stop-color="#6366f1"/>
    </linearGradient>
  </defs>

  <rect x="10" y="10" width="180" height="180" rx="36" fill="url(#rosettaBg)"/>

  <path d="M 62 58 Q 46 58 46 78 Q 46 98 32 100 Q 46 102 46 122 Q 46 142 62 142"
        stroke="#ffffff" stroke-width="9" fill="none"
        stroke-linecap="round" stroke-linejoin="round"/>

  <path d="M 138 58 Q 154 58 154 78 Q 154 98 168 100 Q 154 102 154 122 Q 154 142 138 142"
        stroke="#ffffff" stroke-width="9" fill="none"
        stroke-linecap="round" stroke-linejoin="round"/>

  <path d="M 74 86 L 126 86"
        stroke="#ffffff" stroke-width="7" fill="none" stroke-linecap="round"/>
  <path d="M 118 78 L 126 86 L 118 94"
        stroke="#ffffff" stroke-width="7" fill="none"
        stroke-linecap="round" stroke-linejoin="round"/>

  <path d="M 126 114 L 74 114"
        stroke="#fbbf24" stroke-width="7" fill="none" stroke-linecap="round"/>
  <path d="M 82 106 L 74 114 L 82 122"
        stroke="#fbbf24" stroke-width="7" fill="none"
        stroke-linecap="round" stroke-linejoin="round"/>
</svg>
